<svg width="49" height="45" viewBox="0 0 49 45" fill="none" xmlns="http://www.w3.org/2000/svg">
<path d="M7.03334 0.666432C3.90001 1.3331 1.36667 3.59977 0.466673 6.59977C-0.133327 8.5331 -0.233327 41.9664 0.366673 43.0664C0.566673 43.4331 1.23334 43.9331 1.83334 44.1998C3.20001 44.7664 4.23334 44.4331 5.86667 42.9998C7.40001 41.6664 9.70001 40.3664 12.3 39.3664C14.5 38.5331 14.5333 38.5331 28.3333 38.3331L42.1667 38.1664L44.0667 37.2331C46.2667 36.1331 47.7667 34.4998 48.5 32.3664C49.2333 30.1664 49.2333 8.49977 48.5 6.29977C47.8 4.2331 46.2667 2.46643 44.2 1.39977L42.5 0.499766L25.5 0.433099C16.1667 0.399766 7.83334 0.533099 7.03334 0.666432ZM42.9 4.0331C43.6667 4.39977 44.6667 5.19977 45.0667 5.76643C45.8333 6.8331 45.8333 6.96643 45.9333 18.9331C46.0333 32.5998 46.0333 32.6331 43.5667 34.2664L42.2333 35.1664L28.5333 35.3331C15.4 35.5331 14.7333 35.5664 12.5 36.2998C9.50001 37.2664 6.10001 39.0664 4.36667 40.5664L3.00001 41.7331V24.6331V7.56643L3.83334 6.16643C4.36667 5.2331 5.13334 4.49977 6.06667 4.0331C7.46667 3.3331 7.86667 3.3331 24.4667 3.3331C41 3.3331 41.5 3.36643 42.9 4.0331Z" fill="#1A441D"/>
<path d="M10.3 11.4995C8.79999 12.2995 8.63333 13.2995 8.73333 20.4662C8.83333 26.3662 8.89999 27.1329 9.43333 27.4662C10.5333 28.1662 11.1667 27.3329 11.2667 24.8995L11.3667 22.6995L14.5667 22.5995C17.1667 22.5329 17.8333 22.3995 18.1333 21.9329C18.4 21.4995 18.4 21.1662 18.1333 20.7662C17.8333 20.2995 17.1333 20.1329 14.6333 19.9995L11.5 19.8329L11.4 17.1329C11.3333 15.1995 11.4333 14.3329 11.7667 14.0662C12 13.8662 13.4667 13.6662 14.9667 13.5995C17.2 13.5329 17.8333 13.3662 18.1333 12.8995C18.4 12.4995 18.4 12.1662 18.1333 11.7329C17.6333 10.9662 11.6333 10.7662 10.3 11.4995Z" fill="#1A441D"/>
<path d="M22.0667 11.6666C19.8667 12.9999 19.6667 13.7666 19.6667 20.6999C19.6667 27.0332 19.8 27.6666 21 27.6666C22.0667 27.6666 22.6667 26.5332 22.6667 24.5666V22.6666H24.6667H26.6334L26.7334 24.8666C26.8334 27.3332 27.4334 28.1666 28.6 27.4666C29.1 27.1332 29.1667 26.3666 29.2667 20.7999C29.3334 14.9999 29.3 14.3999 28.6667 13.3999C27.7667 11.9666 26.1334 10.9999 24.5 10.9999C23.7667 10.9999 22.7 11.2999 22.0667 11.6666ZM25.7 14.2999C26.3334 14.8332 26.5 15.2999 26.6 17.2999L26.7334 19.6666H24.7H22.6667V17.1999C22.6667 14.9999 22.7667 14.6332 23.4 14.1999C24.3667 13.4999 24.7667 13.5332 25.7 14.2999Z" fill="#1A441D"/>
<path d="M34.1667 11.3332C33.8 11.4665 33.0667 12.0665 32.5 12.6665L31.5 13.6998L31.4 18.9332C31.3 23.9665 31.3333 24.2332 32.0667 25.3332C33.3333 27.2332 34.6 27.6665 38.9 27.6665C41.8333 27.6665 42.7333 27.5665 43.1333 27.1332C43.4333 26.8665 43.6667 26.4332 43.6667 26.1998C43.6667 25.5665 42.5333 24.6665 41.7333 24.6665C41 24.6665 41 24.5665 41 19.7332C41 14.1998 40.6667 13.0665 38.7 11.7665C37.5333 10.9665 35.4667 10.7665 34.1667 11.3332ZM37.2667 14.1998C37.9667 14.6665 38 14.8998 38 19.6998V24.6665H36.5333C34.2667 24.6665 34 24.0665 34 19.2332C34 15.4998 34.0333 15.2665 34.8333 14.4998C35.7667 13.5332 36.2333 13.4665 37.2667 14.1998Z" fill="#1A441D"/>
</svg>
